<svg xmlns="http://www.w3.org/2000/svg" width="24.5" height="32.667"><path data-name="Path 7" d="M22.458 12.25v18.273a2.1 2.1 0 01-2.042 2.144H4.083a2.1 2.1 0 01-2.042-2.144V12.25C.919 12.25 0 11.025 0 9.545V6.84c0-1.532.919-2.757 2.042-2.757h20.416c1.123 0 2.042 1.225 2.042 2.705v2.706c0 1.531-.919 2.756-2.042 2.756zM4.083 29.655a.981.981 0 001.021.97H19.4a1.015 1.015 0 001.021-.97v-7.2h-2.046a6.125 6.125 0 01-12.25 0H4.083zm12.25-7.2a4.083 4.083 0 10-4.083 4.083 4.1 4.1 0 004.083-4.08zm-12.25-2.038h2.4a6.115 6.115 0 0111.535 0h2.4V12.25H4.083zM21.438 6.125H3.063c-.561 0-1.021.919-1.021 2.042s.459 2.042 1.021 2.042h18.375c.561 0 1.021-.919 1.021-2.042S22 6.125 21.438 6.125zM19.4 2.042H5.1A1.021 1.021 0 115.1 0h14.3a1.021 1.021 0 110 2.042z" fill="#fff" fill-rule="evenodd"/></svg>