<svg xmlns="http://www.w3.org/2000/svg" width="28" height="32"><path data-name="Path 9" d="M28 30a2.006 2.006 0 01-2 2H2a2.006 2.006 0 01-2-2V12a2.51 2.51 0 01.1-.6.966.966 0 01.05-.9L5 .5a.982.982 0 01.85-.45A.184.184 0 016 0h16a.184.184 0 01.15.05.926.926 0 01.85.45l4.85 10a1.063 1.063 0 01.05.95 2.149 2.149 0 01.1.6zM6.6 2l-3.85 8h7.6l1.35-8zM14 2l-2 8h4zm2 10h-4v8h4zm5.4-10h-5.05l1.35 8h7.55zM26 13a1 1 0 00-1-1h-7v10h-8V12H3a1 1 0 00-1 1v16a1 1 0 001 1h22a1 1 0 001-1zM10 26h2v2h-2zm-6 0h4v2H4z" fill="#fff" fill-rule="evenodd"/></svg>