<svg xmlns="http://www.w3.org/2000/svg" width="34" height="36.267"><path data-name="Path 8" d="M34 13.6h-2.267v22.667H2.267V13.6H0V6.8h9.69a4.387 4.387 0 01-.623-2.267A4.5 4.5 0 0117 1.587a4.5 4.5 0 017.933 2.947A4.387 4.387 0 0124.31 6.8H34zM18.133 34h11.334v-9.067H18.133zm0-11.333h11.334V13.6H18.133zM4.533 34h11.334v-9.067H4.533zm0-11.333h11.334V13.6H4.533zm9.067-20.4a2.267 2.267 0 102.267 2.267A2.273 2.273 0 0013.6 2.267zm6.8 0a2.267 2.267 0 102.267 2.267A2.273 2.273 0 0020.4 2.267zm11.333 6.8H2.267v2.267h29.466z" fill="#fff" fill-rule="evenodd"/></svg>