<svg xmlns="http://www.w3.org/2000/svg" width="30" height="32"><path data-name="Path 11" d="M28 32H2a2.006 2.006 0 01-2-2V18L4 4h4v2H5.45L2 18h13a1.46 1.46 0 01-.45-.1 1.192 1.192 0 01-.55-.3l-5.65-5.7a1.131 1.131 0 011.6-1.6l4 4.05V1A1.015 1.015 0 0115 0a1.047 1.047 0 011.05 1v13.25L20 10.3a1.131 1.131 0 111.6 1.6l-5.7 5.7a1.022 1.022 0 01-.45.25.845.845 0 01-.5.15h13L24.5 6H22V4h4l4 14v12a2.006 2.006 0 01-2 2zm-8-14H10v4h10zm8 3a1 1 0 00-1-1h-5v4H8v-4H3a1 1 0 00-1 1v8a1 1 0 001 1h24a1 1 0 001-1z" fill="#fff" fill-rule="evenodd"/></svg>