<svg xmlns="http://www.w3.org/2000/svg" width="32" height="32"><path data-name="Path 10" d="M32 16a3.945 3.945 0 01-3.7 3.95 11.37 11.37 0 01-.8 1.95 3.935 3.935 0 01-5.55 5.55 10.693 10.693 0 01-1.95.8A4.031 4.031 0 0116 32a3.945 3.945 0 01-3.95-3.7 11.37 11.37 0 01-1.95-.8 3.935 3.935 0 01-5.55-5.55 10.692 10.692 0 01-.8-1.95A4.031 4.031 0 010 16a3.945 3.945 0 013.7-3.95 11.37 11.37 0 01.8-1.95 4 4 0 01.2-5.4 3.937 3.937 0 015.35-.2A10.692 10.692 0 0112 3.7 4.026 4.026 0 0116 0a3.945 3.945 0 013.95 3.7 11.37 11.37 0 011.95.8 3.935 3.935 0 015.55 5.55 10.693 10.693 0 01.8 1.95A4.031 4.031 0 0132 16zm-5.2-2a11.191 11.191 0 00-1.75-4.2l.85-.85a2.015 2.015 0 00-2.85-2.85l-.85.85A10.436 10.436 0 0018 5.2V4a2 2 0 00-4 0v1.2a11.191 11.191 0 00-4.2 1.75l-.85-.85A2.015 2.015 0 006.1 8.95l.85.85A10.436 10.436 0 005.2 14H4a2 2 0 000 4h1.2a11.191 11.191 0 001.75 4.2l-.85.85a2.015 2.015 0 002.85 2.85l.85-.85A10.436 10.436 0 0014 26.8V28a2 2 0 004 0v-1.2a11.191 11.191 0 004.2-1.75l.85.85a2.015 2.015 0 002.85-2.85l-.85-.85A10.436 10.436 0 0026.8 18H28a2 2 0 000-4zM16 22a6 6 0 116-6 6.018 6.018 0 01-6 6zm0-10a4 4 0 104 4 4.012 4.012 0 00-4-4z" fill="#fff" fill-rule="evenodd"/></svg>